<svg width="40.000000" height="40.000000" viewBox="0 0 40 40" fill="none" xmlns="http://www.w3.org/2000/svg" xmlns:xlink="http://www.w3.org/1999/xlink">
	<desc>
			Created with Pixso.
	</desc>
	<defs/>
	<rect width="40.000000" height="40.000000" transform="matrix(-1 0 0 1 40 0)" fill="#FFFFFF" fill-opacity="0"/>
	<rect width="39.000000" height="39.000000" transform="matrix(-1 0 0 1 40.5 0.5)" fill="#FFFFFF" fill-opacity="0"/>
	<path d="M3.33325 19.9999C3.33325 29.2 10.8164 36.6666 19.9998 36.6666L20.4661 36.6602C29.4507 36.413 36.6665 29.044 36.6665 19.9999C36.6665 10.8166 29.2 3.33325 19.9998 3.33325C10.8164 3.33325 3.33325 10.8166 3.33325 19.9999ZM23.2832 15.0999C23.7832 14.6166 23.7832 13.8333 23.2998 13.3333C23.0498 13.0833 22.7332 12.9666 22.3999 12.9666C22.0833 12.9666 21.7666 13.0833 21.5332 13.3333L15.7166 19.1166C15.4832 19.3499 15.3499 19.6666 15.3499 19.9999C15.3499 20.3333 15.4832 20.6499 15.7166 20.8832L21.5332 26.6666C22.0166 27.1666 22.7998 27.1666 23.2998 26.6666C23.7832 26.1832 23.7832 25.3832 23.2832 24.8999L18.3665 19.9999L23.2832 15.0999Z" clip-rule="evenodd" fill="#141024" fill-opacity="1.000000" fill-rule="evenodd"/>
</svg>
